<svg xmlns="http://www.w3.org/2000/svg" id="e8121e53-3d3b-4a8a-9aeb-a20a83a10cc9" data-name="b7054790-3588-4bb5-a7ad-0402afe28629" width="1083.0018" height="1083.0018" viewBox="0 0 1083.0018 1083.0018"><g id="a95ccc3c-ff45-424c-a1a8-71f42aaa2020" data-name="a100fce9-5eba-4acb-85c4-cbf468846ca0"><g id="eb1b9682-1406-4cfa-afe0-002655f6204b" data-name="e5b3d32b-6d09-471e-badf-1b622b7a008a"><g id="fafacf53-520e-4b23-93f7-421eb8f345ef" data-name="adceb3d9-1897-4352-ae1b-b64c77880cd0"><path d="M541.5,1083A541.6254,541.6254,0,0,1,330.7041,42.5806,541.6234,541.6234,0,0,1,752.2959,1040.42,538.1712,538.1712,0,0,1,541.5,1083Zm0-953c-109.916,0-213.252,42.8032-290.9741,120.5259S130,431.5845,130,541.5s42.8032,213.2524,120.5259,290.9746S431.584,953,541.5,953s213.2529-42.8037,290.9746-120.5254S953,651.4155,953,541.5,910.1963,328.2476,832.4746,250.5259,651.416,130,541.5,130Z" transform="translate(0.0009 0.0009)"></path></g></g></g></svg>