<svg xmlns="http://www.w3.org/2000/svg" id="e74809c1-9992-4159-8117-529eccd6951c" data-name="Layer 1" width="774" height="774" viewBox="0 0 774 774"><g id="af0531eb-6585-474b-8871-c934d3c20750" data-name="Design"><g id="a5a9b061-2ca3-4e52-a9db-63568a410f7c" data-name="Home"><g id="a6a53c67-9464-46b0-ae49-dc91d3a72a89" data-name="Oval"><path d="M-141,595a384.628,384.628,0,0,1-150.6577-30.4395A385.6071,385.6071,0,0,1-414.65,481.65,385.6338,385.6338,0,0,1-497.561,358.6582,384.6443,384.6443,0,0,1-528,208,384.6364,384.6364,0,0,1-497.561,57.3423,385.6249,385.6249,0,0,1-414.65-65.65,385.6249,385.6249,0,0,1-291.6577-148.561,384.6364,384.6364,0,0,1-141-179,384.6364,384.6364,0,0,1,9.6577-148.561,385.6249,385.6249,0,0,1,132.65-65.65a385.6071,385.6071,0,0,1,82.91,122.9927A384.628,384.628,0,0,1,246,208a384.6358,384.6358,0,0,1-30.44,150.6582A385.616,385.616,0,0,1,132.65,481.65a385.6071,385.6071,0,0,1-122.9927,82.91A384.628,384.628,0,0,1-141,595Zm0-644A255.3172,255.3172,0,0,0-322.7266,26.2734,255.3172,255.3172,0,0,0-398,208a255.3172,255.3172,0,0,0,75.2734,181.7266A255.3172,255.3172,0,0,0-141,465,255.3172,255.3172,0,0,0,40.7266,389.7266,255.3172,255.3172,0,0,0,116,208,255.3172,255.3172,0,0,0,40.7266,26.2734,255.3172,255.3172,0,0,0-141-49Z" transform="translate(528 179)"></path></g></g></g></svg>