<svg xmlns="http://www.w3.org/2000/svg" xmlns:xlink="http://www.w3.org/1999/xlink" id="ac3cb368-e631-48b4-be51-a29bee29d636" data-name="Layer 1" width="169.0572" height="14.3815" viewBox="0 0 169.0572 14.3815"><defs><mask id="fea373b5-37e0-44d8-914b-cf8012819472" x="-0.051" y="-1.6436" width="169.2535" height="18.947" maskUnits="userSpaceOnUse"><g transform="translate(-1.9243 -2.1701)"><g id="bf831c82-7350-4b5c-9b0a-cd8c663c7c77" data-name="mask-2"><polygon id="a1369c58-7005-4691-9878-f0f386efd323" data-name="path-1" points="2.152 0.526 171.127 3.476 170.848 19.473 1.873 16.524 2.152 0.526" style="fill:#fff;fill-rule:evenodd"></polygon></g></g></mask></defs><g id="b63a4934-1298-4404-9621-af74818b3c22" data-name="Design"><g id="eff2d52c-c04a-4ea9-9ef0-c621bc6bc746" data-name="Home"><g id="b18aa18d-6b14-4055-8bc3-5fd03ed6c134" data-name="Group-3"><g style="mask:url(#fea373b5-37e0-44d8-914b-cf8012819472)"><path id="e6dc9f8c-643d-4759-b7fd-1403bda4919b" data-name="Fill-1" d="M3.5873,16.54A472.7425,472.7425,0,0,1,68.2739,8.6931a465.29,465.29,0,0,1,64.7386,1.193q18.1769,1.6164,36.2836,4.6329c2.182.3688,2.2759-5.5345.103-5.9031A464.7055,464.7055,0,0,0,40.0417,5.114Q21.8421,7.1582,3.69,10.6364c-.924.1728-1.7349,1.1822-1.7654,2.9295-.025,1.4325.7293,3.1463,1.6624,2.9736" transform="translate(-1.9243 -2.1701)" style="fill-rule:evenodd"></path></g></g></g></g></svg>